<?xml version="1.0" encoding="UTF-8"?>
<svg id="Layer_2" data-name="Layer 2" xmlns="http://www.w3.org/2000/svg" viewBox="0 0 152 24">
  <defs>
    <style>
      .cls-1 {
        stroke-width: 0px;
      }
    </style>
  </defs>
  <g id="Layer_1-2" data-name="Layer 1">
    <g>
      <path class="cls-1" d="M0,18.62V.97h11.89c.9,0,1.72.18,2.47.55.74.37,1.34.88,1.79,1.53s.68,1.4.68,2.26-.14,1.56-.42,2.1c-.28.55-.64.98-1.09,1.29-.45.32-.94.55-1.48.7v.1c.62.14,1.19.37,1.7.7.51.33.92.8,1.23,1.4s.47,1.37.47,2.31-.23,1.76-.7,2.46c-.47.7-1.09,1.25-1.87,1.64-.78.39-1.65.59-2.62.59H0ZM5.74,7.85h3.95c.28,0,.51-.06.7-.19.19-.13.34-.31.45-.55.11-.24.17-.54.17-.9s-.13-.7-.39-.96c-.26-.26-.57-.4-.93-.4h-3.95v3ZM5.74,14.51h4.36c.4,0,.72-.14.96-.41.24-.27.36-.68.36-1.23,0-.26-.06-.49-.17-.7-.11-.21-.27-.38-.47-.5s-.43-.18-.69-.18h-4.36v3.03Z"/>
      <path class="cls-1" d="M18.2,18.62V.03h5.17v18.59h-5.17Z"/>
      <path class="cls-1" d="M32.23,18.92c-1.56,0-2.91-.26-4.06-.78-1.15-.52-2.05-1.31-2.69-2.36-.64-1.05-.96-2.36-.96-3.94s.32-2.91.96-3.95c.64-1.04,1.54-1.82,2.69-2.35,1.15-.52,2.51-.78,4.06-.78s2.92.26,4.08.78c1.16.52,2.06,1.3,2.7,2.35.64,1.04.96,2.36.96,3.95s-.32,2.88-.96,3.94c-.64,1.05-1.54,1.84-2.7,2.36-1.16.52-2.52.78-4.08.78ZM32.23,15.46c.61,0,1.1-.12,1.48-.35.38-.23.66-.56.83-.99.17-.43.26-.94.26-1.54v-1.46c0-.6-.09-1.12-.26-1.55s-.45-.77-.83-1c-.38-.23-.87-.35-1.48-.35s-1.1.12-1.47.35c-.37.23-.65.56-.82,1-.17.44-.26.95-.26,1.55v1.46c0,.6.09,1.11.26,1.54.17.43.45.76.82.99.37.23.86.35,1.47.35Z"/>
      <path class="cls-1" d="M48.47,18.92c-1.56,0-2.91-.26-4.06-.78-1.15-.52-2.05-1.31-2.69-2.36-.64-1.05-.96-2.36-.96-3.94s.32-2.91.96-3.96c.64-1.05,1.54-1.84,2.69-2.36,1.15-.52,2.51-.78,4.06-.78,1.04,0,2.02.11,2.93.33.92.22,1.72.56,2.42,1.03.69.46,1.23,1.06,1.62,1.79.39.74.58,1.62.58,2.64h-5.01c0-.53-.1-.97-.3-1.31-.2-.34-.49-.59-.87-.76s-.84-.24-1.38-.24c-.61,0-1.1.12-1.47.35-.37.23-.65.56-.82,1-.17.44-.26.95-.26,1.55v1.46c0,.6.09,1.11.27,1.54.18.43.47.76.86.99s.9.35,1.52.35c.57,0,1.05-.08,1.44-.24.39-.16.69-.42.9-.77.21-.35.31-.8.31-1.35h4.8c0,1.03-.19,1.91-.58,2.65s-.93,1.35-1.62,1.81c-.69.46-1.5.8-2.42,1.03s-1.9.33-2.93.33Z"/>
      <path class="cls-1" d="M57.56,18.62V0h5.17v10.26l4.39-5.18h6.02l-5.06,5.46,5.19,8.08h-5.87l-2.88-4.64-1.79,1.72v2.92h-5.17Z"/>
      <path class="cls-1" d="M79.77,18.92c-.83,0-1.66-.08-2.48-.24s-1.58-.42-2.26-.77c-.68-.35-1.23-.8-1.65-1.35-.42-.55-.62-1.21-.62-2v-.17c0-.06,0-.12.03-.19h4.8c-.02.05-.03.1-.03.15v.13c.02.31.13.56.32.77.2.21.46.36.79.46.33.1.69.15,1.09.15.24,0,.53-.02.87-.05.34-.03.64-.12.9-.26s.39-.37.39-.69c0-.29-.15-.51-.45-.65-.3-.14-.7-.26-1.19-.36-.49-.09-1.03-.19-1.62-.29-.64-.1-1.29-.23-1.93-.4-.65-.16-1.25-.39-1.8-.69s-1-.7-1.34-1.19c-.34-.5-.51-1.14-.51-1.92,0-.89.19-1.63.56-2.23.37-.6.88-1.07,1.53-1.42.65-.35,1.39-.6,2.21-.74.82-.15,1.68-.22,2.58-.22.78,0,1.55.07,2.32.22s1.48.38,2.12.69c.64.32,1.15.73,1.53,1.24.38.51.57,1.14.57,1.87v.19c0,.08,0,.13-.03.17h-4.75v-.21c0-.26-.09-.47-.27-.63-.18-.16-.42-.28-.7-.36-.29-.08-.58-.12-.87-.12-.1,0-.26,0-.47.01-.21,0-.42.04-.64.09-.22.05-.4.14-.55.26-.15.12-.22.29-.22.51,0,.21.1.37.3.5.2.13.47.23.8.31.34.08.71.16,1.13.24.66.12,1.37.24,2.13.35.76.11,1.48.3,2.17.56.68.27,1.24.67,1.67,1.21.43.54.65,1.29.65,2.27,0,.92-.19,1.7-.57,2.32-.38.62-.9,1.12-1.56,1.47-.66.36-1.42.62-2.27.77-.86.15-1.75.23-2.69.23Z"/>
      <path class="cls-1" d="M87.83,23.67V5.08h4.21l.44,1.92h.18c.48-.8,1.08-1.38,1.79-1.72.71-.34,1.51-.51,2.39-.51,1.21,0,2.25.26,3.12.78.87.52,1.53,1.31,1.99,2.36.46,1.05.69,2.37.69,3.96s-.23,2.88-.69,3.92c-.46,1.04-1.12,1.82-1.99,2.35s-1.9.78-3.12.78c-.48,0-.96-.05-1.42-.15-.46-.1-.88-.27-1.26-.5-.38-.23-.71-.53-.99-.88h-.18v6.28h-5.17ZM95.24,15.15c.54,0,.97-.11,1.3-.33.33-.22.57-.53.71-.92.15-.39.22-.85.22-1.38v-1.36c0-.53-.07-.99-.22-1.38-.15-.39-.39-.7-.71-.91-.33-.21-.76-.32-1.3-.32s-.97.13-1.31.38-.58.6-.74,1.04c-.16.44-.23.92-.23,1.45v.85c0,.39.04.77.13,1.12.09.35.22.66.4.92.18.27.42.47.71.63.29.15.64.23,1.04.23Z"/>
      <path class="cls-1" d="M108.37,18.92c-.71,0-1.36-.06-1.95-.19s-1.1-.34-1.53-.64c-.43-.3-.77-.69-1-1.18s-.35-1.08-.35-1.78c0-1.01.21-1.83.64-2.46s1.04-1.12,1.86-1.46c.81-.34,1.8-.58,2.97-.7s2.51-.19,4.01-.19v-.67c0-.38-.09-.68-.27-.91-.18-.23-.42-.41-.71-.53-.29-.12-.63-.18-1.01-.18-.29,0-.6.03-.91.1-.31.07-.57.19-.77.36-.2.17-.3.41-.3.72v.1h-5.09c-.02-.07-.03-.13-.03-.18v-.18c0-.84.27-1.57.82-2.19.55-.62,1.35-1.11,2.41-1.46,1.06-.35,2.38-.53,3.93-.53,1.26,0,2.43.14,3.51.41,1.07.27,1.94.73,2.6,1.37.66.64.99,1.52.99,2.63v5.28c0,.27.07.51.21.71.14.2.35.29.62.29h.93v2.95c-.21.12-.55.23-1.03.35-.48.11-1.03.17-1.67.17-.69,0-1.3-.07-1.82-.21s-.94-.33-1.26-.59c-.32-.26-.54-.56-.66-.9h-.18c-.36.33-.78.62-1.26.87-.48.26-1.02.46-1.62.6-.61.14-1.3.22-2.08.22ZM110.48,15.74c.33,0,.64-.05.95-.14.3-.09.58-.22.82-.38.24-.16.43-.36.57-.59.14-.23.21-.48.21-.76v-1.15c-1.02,0-1.85.08-2.48.23-.63.15-1.1.36-1.39.62-.29.26-.44.56-.44.9s.09.61.26.79c.17.19.39.32.66.38.27.07.55.1.84.1Z"/>
      <path class="cls-1" d="M123.86,24c-.62,0-1.2-.15-1.73-.44-.53-.29-.95-.69-1.26-1.19s-.47-1.06-.47-1.68c0-.7.22-1.32.66-1.85s.95-.92,1.52-1.18c-.42-.29-.74-.64-.99-1.05-.24-.41-.36-.85-.36-1.33,0-.68.26-1.29.77-1.83s1.13-.89,1.86-1.06c-.62-.39-1.15-.87-1.57-1.42-.42-.56-.64-1.16-.64-1.81,0-1.13.32-2.01.96-2.64.64-.63,1.5-1.08,2.57-1.35,1.07-.26,2.25-.4,3.53-.4.52,0,.96.01,1.31.04.35.03.67.06.95.12.76-.46,1.29-.91,1.58-1.36.29-.44.44-.79.44-1.03h4.26c0,.74-.13,1.34-.38,1.82-.25.48-.61.86-1.09,1.15s-1.04.52-1.7.69c.5.38.9.82,1.18,1.32.29.5.43,1.04.43,1.6,0,1.01-.27,1.83-.8,2.47-.54.64-1.24,1.12-2.12,1.42-.87.31-1.82.46-2.84.46h-1.97c-.59,0-1.01.07-1.26.21-.25.14-.38.32-.38.54s.11.41.32.56c.22.15.65.23,1.31.23h4.67c1.59,0,2.76.41,3.51,1.22.74.81,1.12,1.85,1.12,3.12,0,.96-.27,1.78-.8,2.47-.54.69-1.24,1.23-2.12,1.6-.87.38-1.82.56-2.84.56h-7.63ZM126.66,21.15h4.05c.26,0,.49-.05.7-.15.21-.1.37-.25.49-.45.12-.2.18-.42.18-.68,0-.39-.13-.7-.4-.92-.27-.22-.59-.33-.97-.33h-4.05c-.38,0-.7.11-.96.32-.26.21-.39.52-.39.91s.13.71.39.95c.26.24.58.36.96.36ZM128.66,10.82c.61,0,1.09-.14,1.45-.41.36-.27.55-.7.55-1.28s-.18-1.01-.55-1.28c-.36-.27-.85-.41-1.45-.41-.54,0-1,.14-1.38.41-.38.27-.57.7-.57,1.28,0,.38.08.69.23.95.16.26.38.44.68.56.29.12.64.18,1.04.18Z"/>
      <path class="cls-1" d="M144.57,18.92c-1.64,0-3.07-.25-4.27-.76-1.2-.5-2.13-1.28-2.78-2.32-.65-1.04-.97-2.38-.97-4s.32-2.91.96-3.95c.64-1.04,1.54-1.82,2.69-2.35,1.15-.52,2.51-.78,4.06-.78,1.64,0,3.04.25,4.19.76,1.15.5,2.03,1.28,2.64,2.32.61,1.04.91,2.38.91,4v.87h-10.28c0,.62.09,1.15.27,1.59.18.44.48.78.88,1.01.41.23.94.35,1.6.35.47,0,.86-.05,1.18-.15.32-.1.58-.24.78-.42.2-.18.34-.39.43-.63.09-.24.13-.5.13-.77h5.01c0,.8-.16,1.53-.47,2.18s-.78,1.2-1.4,1.65-1.4.8-2.32,1.04c-.93.24-2,.36-3.23.36ZM141.74,10.31h5.04c0-.36-.05-.68-.16-.96-.1-.28-.26-.52-.45-.72-.2-.2-.44-.35-.73-.45-.29-.1-.61-.15-.97-.15-.57,0-1.05.09-1.43.28-.38.19-.68.45-.88.78-.21.33-.35.74-.42,1.22Z"/>
    </g>
  </g>
</svg>