<?xml version="1.0" encoding="UTF-8"?>
<svg id="Layer_2" data-name="Layer 2" xmlns="http://www.w3.org/2000/svg" viewBox="0 0 33.56 28.37">
  <defs>
    <style>
      .cls-1 {
        stroke-width: 1.17px;
      }

      .cls-1, .cls-2 {
        stroke: #000;
        stroke-miterlimit: 10;
      }

      .cls-2 {
        fill: none;
        stroke-width: 1.56px;
      }

      .cls-3 {
        stroke-width: 0px;
      }
    </style>
  </defs>
  <g id="Layer_1-2" data-name="Layer 1">
    <g>
      <path class="cls-2" d="M27.16,11.16h-2.2c1.58-1,2.63-2.76,2.63-4.76,0-3.1-2.52-5.62-5.62-5.62H2.51c-.95,0-1.73.78-1.73,1.73v23.35c0,.95.78,1.73,1.73,1.73h27.24c1.67,0,3.03-1.36,3.03-3.03v-7.78c0-3.1-2.52-5.62-5.62-5.62Z"/>
      <g>
        <path class="cls-1" d="M27.16,11.16h-2.2c1.58-1,2.63-2.76,2.63-4.76,0-3.1-2.52-5.62-5.62-5.62H2.51c-.95,0-1.73.78-1.73,1.73v23.35c0,.95.78,1.73,1.73,1.73h27.24c1.67,0,3.03-1.36,3.03-3.03v-7.78c0-3.1-2.52-5.62-5.62-5.62ZM1.64,2.51c0-.48.39-.86.86-.86h19.46c2.62,0,4.76,2.13,4.76,4.76s-2.13,4.76-4.76,4.76H1.64V2.51ZM11.16,26.72H2.51c-.48,0-.86-.39-.86-.86v-13.84h9.51v14.7ZM31.91,24.56c0,1.19-.97,2.16-2.16,2.16H12.02v-14.7h15.14c2.62,0,4.76,2.13,4.76,4.76v7.78Z"/>
        <path class="cls-3" d="M24.37,16.96h-7.78v5.19h10.38v-2.59c0-1.43-1.16-2.59-2.59-2.59Z"/>
        <circle class="cls-3" cx="20.58" cy="6.4" r="2.59"/>
      </g>
    </g>
  </g>
</svg>